G04 ================== begin FILE IDENTIFICATION RECORD ==================*
G04 Layout Name:  gateway multiprotocol.brd*
G04 Film Name:    BOTTOM*
G04 File Format:  Gerber RS274X*
G04 File Origin:  Cadence Allegro 25.1-S010*
G04 Origin Date:  Tue May 12 06:42:08 2026*
G04 *
G04 Layer:  ETCH/BOTTOM*
G04 Layer:  PIN/BOTTOM*
G04 Layer:  VIA CLASS/BOTTOM*
G04 *
G04 Offset:    (0.00 0.00)*
G04 Mirror:    No*
G04 Mode:      Positive*
G04 Rotation:  0*
G04 FullContactRelief:  No*
G04 UndefLineWidth:     0.00*
G04 ================== end FILE IDENTIFICATION RECORD ====================*
%FSLAX25Y25*MOIN*%
%IR0*IPPOS*OFA0.00000B0.00000*MIA0B0*SFA1.00000B1.00000*%
%ADD10C,.05*%
%ADD25C,.051*%
%ADD16C,.024*%
%ADD18C,.061*%
%ADD11C,.09*%
%ADD17C,.073*%
%ADD15C,.055*%
%ADD12C,.083*%
%ADD24R,.051X.051*%
%ADD23R,.061X.061*%
%ADD19C,.0941*%
%ADD13R,.055X.055*%
%ADD27C,.04725*%
%ADD26C,.02953*%
%ADD21C,.05394*%
%ADD20R,.05394X.05394*%
%ADD22C,.11024*%
%ADD14C,.13583*%
%ADD28C,.005*%
%ADD40C,.06104*%
%ADD31C,.03404*%
%ADD30C,.07104*%
%ADD36C,.08304*%
%ADD32C,.06504*%
%ADD42C,.09304*%
%ADD38C,.04556*%
%ADD37C,.05728*%
%ADD39C,.06398*%
%ADD29R,.40004X.40004*%
%ADD41C,.10004*%
%ADD34C,.10414*%
%ADD35C,.12028*%
%ADD33C,.15186*%
G75*
%LPD*%
G75*
G36*
G01X747500Y1285000D02*
X1932500D01*
Y632500D01*
X747500D01*
Y1285000D01*
G37*
%LPC*%
G75*
G36*
G01X1512248Y1057250D02*
Y1062750D01*
G02X1512750Y1063252I502J0D01*
G01X1518250D01*
G02X1518752Y1062750I0J-502D01*
G01Y1057250D01*
G02X1518250Y1056748I-502J0D01*
G01X1512750D01*
G02X1512248Y1057250I0J502D01*
G37*
G36*
G01X1319248Y1047250D02*
Y1052750D01*
G02X1319750Y1053252I502J0D01*
G01X1325250D01*
G02X1325752Y1052750I0J-502D01*
G01Y1047250D01*
G02X1325250Y1046748I-502J0D01*
G01X1319750D01*
G02X1319248Y1047250I0J502D01*
G37*
G36*
G01X1593948Y994450D02*
Y1000550D01*
G02X1594450Y1001052I502J0D01*
G01X1600550D01*
G02X1601052Y1000550I0J-502D01*
G01Y994450D01*
G02X1600550Y993948I-502J0D01*
G01X1594450D01*
G02X1593948Y994450I0J502D01*
G37*
G36*
G01X891748Y957250D02*
Y962750D01*
G02X892250Y963252I502J0D01*
G01X897750D01*
G02X898252Y962750I0J-502D01*
G01Y957250D01*
G02X897750Y956748I-502J0D01*
G01X892250D01*
G02X891748Y957250I0J502D01*
G37*
G36*
G01X1114248Y929750D02*
Y935250D01*
G02X1114750Y935752I502J0D01*
G01X1120250D01*
G02X1120752Y935250I0J-502D01*
G01Y929750D01*
G02X1120250Y929248I-502J0D01*
G01X1114750D01*
G02X1114248Y929750I0J502D01*
G37*
G36*
G01X1454448Y922450D02*
Y927550D01*
G02X1454950Y928052I502J0D01*
G01X1460050D01*
G02X1460552Y927550I0J-502D01*
G01Y922450D01*
G02X1460050Y921948I-502J0D01*
G01X1454950D01*
G02X1454448Y922450I0J502D01*
G37*
G36*
G01X1174248Y914750D02*
Y920250D01*
G02X1174750Y920752I502J0D01*
G01X1180250D01*
G02X1180752Y920250I0J-502D01*
G01Y914750D01*
G02X1180250Y914248I-502J0D01*
G01X1174750D01*
G02X1174248Y914750I0J502D01*
G37*
G36*
G01X1314802Y902303D02*
Y907697D01*
G02X1315303Y908198I501J0D01*
G01X1320697D01*
G02X1321198Y907697I0J-501D01*
G01Y902303D01*
G02X1320697Y901802I-501J0D01*
G01X1315303D01*
G02X1314802Y902303I0J501D01*
G37*
G36*
G01X1453448Y891450D02*
Y896550D01*
G02X1453950Y897052I502J0D01*
G01X1459050D01*
G02X1459552Y896550I0J-502D01*
G01Y891450D01*
G02X1459050Y890948I-502J0D01*
G01X1453950D01*
G02X1453448Y891450I0J502D01*
G37*
G36*
G01X1554248Y867250D02*
Y872750D01*
G02X1554750Y873252I502J0D01*
G01X1560250D01*
G02X1560752Y872750I0J-502D01*
G01Y867250D01*
G02X1560250Y866748I-502J0D01*
G01X1554750D01*
G02X1554248Y867250I0J502D01*
G37*
G36*
G01X1166802Y864803D02*
Y870197D01*
G02X1167303Y870698I501J0D01*
G01X1172697D01*
G02X1173198Y870197I0J-501D01*
G01Y864803D01*
G02X1172697Y864302I-501J0D01*
G01X1167303D01*
G02X1166802Y864803I0J501D01*
G37*
G36*
G01X1444248Y842250D02*
Y847750D01*
G02X1444750Y848252I502J0D01*
G01X1450250D01*
G02X1450752Y847750I0J-502D01*
G01Y842250D01*
G02X1450250Y841748I-502J0D01*
G01X1444750D01*
G02X1444248Y842250I0J502D01*
G37*
G36*
G01X1552748Y838750D02*
Y844250D01*
G02X1553250Y844752I502J0D01*
G01X1558750D01*
G02X1559252Y844250I0J-502D01*
G01Y838750D01*
G02X1558750Y838248I-502J0D01*
G01X1553250D01*
G02X1552748Y838750I0J502D01*
G37*
G36*
G01X1519948Y802450D02*
Y808550D01*
G02X1520450Y809052I502J0D01*
G01X1526550D01*
G02X1527052Y808550I0J-502D01*
G01Y802450D01*
G02X1526550Y801948I-502J0D01*
G01X1520450D01*
G02X1519948Y802450I0J502D01*
G37*
G36*
G01X1556748Y762250D02*
Y767750D01*
G02X1557250Y768252I502J0D01*
G01X1562750D01*
G02X1563252Y767750I0J-502D01*
G01Y762250D01*
G02X1562750Y761748I-502J0D01*
G01X1557250D01*
G02X1556748Y762250I0J502D01*
G37*
G36*
G01X1621748Y759750D02*
Y765250D01*
G02X1622250Y765752I502J0D01*
G01X1627750D01*
G02X1628252Y765250I0J-502D01*
G01Y759750D01*
G02X1627750Y759248I-502J0D01*
G01X1622250D01*
G02X1621748Y759750I0J502D01*
G37*
G36*
G01X1426448Y754450D02*
Y760550D01*
G02X1426950Y761052I502J0D01*
G01X1433050D01*
G02X1433552Y760550I0J-502D01*
G01Y754450D01*
G02X1433050Y753948I-502J0D01*
G01X1426950D01*
G02X1426448Y754450I0J502D01*
G37*
G36*
G01X1436448Y719450D02*
Y725550D01*
G02X1436950Y726052I502J0D01*
G01X1443050D01*
G02X1443552Y725550I0J-502D01*
G01Y719450D01*
G02X1443050Y718948I-502J0D01*
G01X1436950D01*
G02X1436448Y719450I0J502D01*
G37*
G36*
G01X1518717Y826119D02*
G03Y826381I-151J131D01*
G02X1518298Y827500I1283J1118D01*
G02X1521702I1702J0D01*
G02X1521283Y826381I-1702J-1D01*
G03Y826119I151J-131D01*
G02X1521702Y825000I-1283J-1118D01*
G02X1518298I-1702J0D01*
G02X1518717Y826119I1702J1D01*
G37*
G36*
G01X1176439Y895910D02*
X1176500Y895812D01*
X1235940Y898190D01*
X1235993Y898292D01*
G02X1237500Y899202I1507J-793D01*
G02Y895798I0J-1702D01*
G02X1236061Y896590I0J1703D01*
G01X1236000Y896688D01*
X1176560Y894310D01*
X1176507Y894208D01*
G02X1175000Y893298I-1507J793D01*
G02Y896702I0J1702D01*
G02X1176439Y895910I0J-1703D01*
G37*
G36*
G01X1360932Y916279D02*
X1360992Y916141D01*
X1377404Y918245D01*
G02X1377500Y918252I103J-745D01*
G02X1378062Y917999I0J-751D01*
G01X1397044Y896644D01*
X1397157Y896667D01*
G02X1397500Y896702I343J-1667D01*
G02X1395798Y895000I0J-1702D01*
G02X1395885Y895536I1702J-1D01*
G01X1395921Y895645D01*
X1377202Y916704D01*
X1361183Y914650D01*
X1361160Y914502D01*
G02X1358000Y911801I-3160J498D01*
G02Y918199I0J3199D01*
G02X1360932Y916279I0J-3199D01*
G37*
G36*
G01X1323128Y921586D02*
X1325191Y923462D01*
X1325125Y923597D01*
G02X1324801Y925000I2876J1403D01*
G02X1328000Y921801I3199J0D01*
G02X1326330Y922272I1J3199D01*
G01X1326202Y922350D01*
X1324139Y920474D01*
X1324163Y920361D01*
G02X1324202Y920000I-1663J-362D01*
G02X1322500Y921702I-1702J0D01*
G02X1323018Y921621I-1J-1702D01*
G01X1323128Y921586D01*
G37*
G36*
G01X1342187Y929269D02*
X1308974Y931641D01*
X1308909Y931546D01*
G02X1307500Y930798I-1409J953D01*
G02Y934202I0J1702D01*
G02X1309031Y933244I0J-1702D01*
G01X1309081Y933140D01*
X1342554Y930750D01*
G02X1343006Y930556I-54J-750D01*
G01X1346202Y927650D01*
X1346330Y927728D01*
G02X1348000Y928199I1671J-2728D01*
G02X1344801Y925000I0J-3199D01*
G02X1345125Y926403I3200J0D01*
G01X1345191Y926538D01*
X1342187Y929269D01*
G37*
G36*
G01X1216763Y974853D02*
G02X1216748Y975000I737J149D01*
G02X1217254Y975710I751J0D01*
G01X1228858Y979729D01*
X1228880Y979842D01*
G02X1230551Y981222I1671J-322D01*
G02Y977818I0J-1702D01*
G02X1229437Y978233I0J1703D01*
G01X1229350Y978309D01*
X1218365Y974504D01*
X1220731Y962677D01*
X1225606Y945614D01*
X1280198Y930725D01*
G02X1280336Y930672I-199J-725D01*
G01X1285177Y928252D01*
X1285973D01*
G02X1287500Y929202I1527J-752D01*
G02Y925798I0J-1702D01*
G02X1285973Y926748I0J1702D01*
G01X1285000D01*
G02X1284664Y926828I1J752D01*
G01X1279730Y929295D01*
X1224802Y944275D01*
G02X1224277Y944794I198J725D01*
G01X1219277Y962294D01*
G02X1219263Y962353I724J203D01*
G01X1216763Y974853D01*
G37*
G36*
G01X1214399Y977951D02*
X1220980Y986726D01*
X1220935Y986832D01*
G02X1220798Y987500I1565J669D01*
G02X1222500Y985798I1702J0D01*
G02X1222297Y985810I-1J1702D01*
G01X1222182Y985824D01*
X1215752Y977250D01*
Y967542D01*
X1218208Y945431D01*
X1247728Y925752D01*
X1285000D01*
G02X1285124Y925741I-4J-752D01*
G01X1298613Y923493D01*
X1298686Y923582D01*
G02X1300000Y924202I1314J-1082D01*
G02Y920798I0J-1702D01*
G02X1298406Y921902I0J1703D01*
G01X1298366Y922010D01*
X1284938Y924248D01*
X1247500D01*
G02X1247083Y924375I1J752D01*
G01X1217083Y944375D01*
G02X1216753Y944917I417J625D01*
G01X1214253Y967417D01*
G02X1214248Y967500I747J87D01*
G01Y977500D01*
G02X1214399Y977951I752J-1D01*
G37*
G36*
G01X1237940Y1009144D02*
X1238052Y1009114D01*
X1239469Y1010531D01*
G02X1240000Y1010752I532J-530D01*
G02X1240601Y1010451I-1J-752D01*
G01X1308101Y920451D01*
G02X1308252Y920000I-601J-452D01*
G02X1307500Y919248I-752J0D01*
G02X1306899Y919549I1J752D01*
G01X1240195Y1008487D01*
G03X1239593Y1008530I-320J-240D01*
G01X1239114Y1008052D01*
X1239144Y1007940D01*
G02X1239202Y1007500I-1644J-441D01*
G02X1237500Y1009202I-1702J0D01*
G02X1237940Y1009144I-1J-1702D01*
G37*
G36*
G01X1206052Y1056338D02*
X1206143Y1056267D01*
X1217221Y1060698D01*
G02X1217500Y1060752I280J-698D01*
G02X1218031Y1060531I-1J-751D01*
G01X1224448Y1054114D01*
X1224560Y1054144D01*
G02X1225000Y1054202I441J-1644D01*
G02X1223298Y1052500I0J-1702D01*
G02X1223356Y1052940I1702J-1D01*
G01X1223386Y1053052D01*
X1217319Y1059118D01*
X1206701Y1054871D01*
X1206685Y1054757D01*
G02X1205000Y1053298I-1685J244D01*
G02Y1056702I0J1702D01*
G02X1206052Y1056338I0J-1702D01*
G37*
G36*
G01X1161748Y1065000D02*
G02X1162500Y1065752I752J0D01*
G01X1170973D01*
G02X1172500Y1066702I1527J-752D01*
G02Y1063298I0J-1702D01*
G02X1170973Y1064248I0J1702D01*
G01X1164112D01*
G03X1163806Y1063592I1J-400D01*
G02X1164202Y1062500I-1306J-1091D01*
G02X1160798I-1702J0D01*
G02X1161748Y1064027I1702J0D01*
G01Y1065000D01*
G37*
G36*
G01X1169695Y1041809D02*
X1093727Y1066315D01*
X1093641Y1066237D01*
G02X1092500Y1065798I-1141J1263D01*
G02Y1069202I0J1702D01*
G02X1094164Y1067858I0J-1702D01*
G01X1094188Y1067745D01*
X1170231Y1043215D01*
G02X1170373Y1043152I-232J-715D01*
G01X1221543Y1013912D01*
X1221643Y1013970D01*
G02X1222500Y1014202I858J-1470D01*
G02X1224013Y1013280I0J-1702D01*
G03X1224588Y1013128I356J183D01*
G02X1225000Y1013252I414J-628D01*
G01X1245000D01*
G02X1245157Y1013235I-2J-752D01*
G01X1278660Y1006056D01*
X1278737Y1006141D01*
G02X1280000Y1006702I1263J-1141D01*
G02Y1003298I0J-1702D01*
G02X1278381Y1004476I0J1702D01*
G01X1278345Y1004586D01*
X1244920Y1011748D01*
X1225587D01*
X1223229Y1002318D01*
G02X1222836Y1001828I-729J182D01*
G01X1212927Y996873D01*
X1188215Y974633D01*
X1185916Y953939D01*
X1186009Y953871D01*
G02X1186702Y952500I-1010J-1371D01*
G02X1183298I-1702J0D01*
G02X1184317Y954059I1702J0D01*
G01X1184422Y954105D01*
X1186753Y975083D01*
G02X1186997Y975559I747J-82D01*
G01X1211997Y998059D01*
G02X1212164Y998172I501J-560D01*
G01X1221855Y1003018D01*
X1223718Y1010472D01*
G03X1223172Y1010936I-388J97D01*
G02X1222500Y1010798I-671J1564D01*
G02X1220798Y1012492I0J1702D01*
G01X1220797Y1012607D01*
X1169695Y1041809D01*
G37*
G36*
G01X921777Y1072706D02*
X931777Y1107706D01*
G02X932500Y1108252I723J-206D01*
G01X1145000D01*
G02X1145577Y1107981I-1J-752D01*
G01X1158077Y1092981D01*
G02X1158252Y1092500I-577J-482D01*
G02X1158241Y1092376I-752J4D01*
G01X1155993Y1078887D01*
X1156082Y1078814D01*
G02X1156702Y1077500I-1082J-1314D01*
G02X1153298I-1702J0D01*
G02X1154402Y1079094I1703J0D01*
G01X1154510Y1079134D01*
X1156702Y1092284D01*
X1144648Y1106748D01*
X933067D01*
X923327Y1072660D01*
X939653Y1051670D01*
X939767Y1051686D01*
G02X940000Y1051702I233J-1686D01*
G02X938298Y1050000I0J-1702D01*
G02X938423Y1050641I1702J1D01*
G01X938467Y1050747D01*
X921907Y1072039D01*
G02X921748Y1072500I593J462D01*
G02X921777Y1072706I752J-1D01*
G37*
G36*
G01X1208942Y891167D02*
G02X1208298Y892500I1058J1333D01*
G02X1211702I1702J0D01*
G02X1211058Y891167I-1702J0D01*
G03X1211161Y890481I249J-313D01*
G02X1213199Y887500I-1161J-2981D01*
G02X1206801I-3199J0D01*
G02X1208839Y890481I3199J0D01*
G03X1208942Y891167I-146J373D01*
G37*
G36*
G01X1281094Y918691D02*
X1281001Y918623D01*
G02X1280000Y918298I-1000J1377D01*
G02Y921702I0J1702D01*
G02X1281693Y920180I0J-1703D01*
G01X1281705Y920065D01*
X1302659Y910752D01*
X1330888D01*
G03X1331194Y911408I-1J400D01*
G02X1330804Y912357I1306J1091D01*
G03X1330138Y912621I-399J-34D01*
G02X1328000Y911801I-2139J2379D01*
G02X1331199Y915000I0J3199D01*
G02X1331150Y914442I-3199J0D01*
G03X1331726Y914016I394J-70D01*
G02X1332500Y914202I774J-1516D01*
G02X1334202Y912500I0J-1702D01*
G02X1333806Y911408I-1702J-1D01*
G03X1334112Y910752I307J-256D01*
G01X1342209D01*
X1345191Y913462D01*
X1345125Y913597D01*
G02X1344801Y915000I2876J1403D01*
G02X1348000Y911801I3199J0D01*
G02X1346330Y912272I1J3199D01*
G01X1346202Y912350D01*
X1343006Y909444D01*
G02X1342500Y909248I-506J555D01*
G01X1302500D01*
G02X1302195Y909313I1J752D01*
G01X1281094Y918691D01*
G37*
G36*
G01X1237926Y993348D02*
X1237813Y993327D01*
G02X1237500Y993298I-313J1673D01*
G02X1239202Y995000I0J1702D01*
G02X1239106Y994435I-1702J-1D01*
G01X1239067Y994326D01*
X1282074Y944152D01*
X1282187Y944173D01*
G02X1282500Y944202I313J-1673D01*
G02Y940798I0J-1702D01*
G02X1282008Y940871I1J1702D01*
G03X1281559Y940266I-116J-383D01*
G01X1282982Y938131D01*
X1288785Y936197D01*
X1288871Y936274D01*
G02X1290000Y936702I1129J-1275D01*
G02Y933298I0J-1702D01*
G02X1288333Y934658I0J1702D01*
G01X1288309Y934771D01*
X1283943Y936227D01*
G03X1283605Y935508I-126J-380D01*
G01X1294100Y928949D01*
X1294202Y929003D01*
G02X1295000Y929202I799J-1503D01*
G02X1293298Y927500I0J-1702D01*
G02X1293299Y927559I1702J1D01*
G01X1293303Y927674D01*
X1275900Y938551D01*
X1275798Y938497D01*
G02X1275000Y938298I-799J1503D01*
G02X1276702Y940000I0J1702D01*
G02X1276701Y939941I-1702J-1D01*
G01X1276697Y939826D01*
X1280864Y937221D01*
G03X1281409Y937782I212J339D01*
G01X1276985Y944417D01*
X1258534Y953643D01*
X1258437Y953579D01*
G02X1257500Y953298I-937J1422D01*
G02Y956702I0J1702D01*
G02X1259199Y955102I0J-1702D01*
G01X1259206Y954987D01*
X1277836Y945672D01*
G02X1278125Y945417I-336J-672D01*
G01X1280076Y942491D01*
G03X1280807Y942672I333J222D01*
G02X1280894Y943065I1694J-169D01*
G01X1280933Y943174D01*
X1237926Y993348D01*
G37*
G54D40*
X1487500Y894000D03*
X1488500Y925000D03*
G54D31*
X1475000Y757500D03*
X1537500Y772500D03*
X1532500Y820000D03*
X1552500Y817500D03*
X1535000Y840000D03*
X1192500Y860000D03*
X1225000Y857500D03*
X1175000Y872500D03*
X1215000Y870000D03*
X1317500D03*
X1487500D03*
X1215000Y880000D03*
X1370000Y877500D03*
X1497500Y875000D03*
X1162500Y885000D03*
X1195000Y882500D03*
X1492500D03*
X1520000D03*
X1127500Y892500D03*
X1242500Y887500D03*
X1627500Y895000D03*
X1405000Y905000D03*
X1305000Y917500D03*
X1620000Y937500D03*
X1652500Y935000D03*
X987500Y957500D03*
X1615000Y960000D03*
X1277500Y970000D03*
X1290000Y965000D03*
X1310000Y967500D03*
X975000Y982500D03*
X1015000Y977500D03*
X1272500Y980000D03*
X1262500Y987500D03*
X1100000Y995000D03*
X1257500Y992500D03*
X975000Y1002500D03*
X1830000Y997500D03*
X955000Y1007500D03*
X975000Y1017500D03*
X1230000Y1020000D03*
X1212500Y1030000D03*
X1290000Y1032500D03*
X1102500Y1052500D03*
X1000000Y1060000D03*
X1260000Y1137500D03*
G54D30*
X1553000Y722500D03*
X1543000Y757500D03*
X1290000Y790000D03*
X1307720D03*
X1636500Y805500D03*
X1710500Y997500D03*
X1135000Y1010000D03*
X1152720D03*
G54D36*
X1285080Y799850D03*
X1312640D03*
X1130080Y1019850D03*
X1157640D03*
G54D32*
X1670000Y762500D03*
X1605000Y765000D03*
X1604000Y841500D03*
X1492500Y845000D03*
X1605500Y870000D03*
X1222500Y917500D03*
X1162500Y932500D03*
X925800Y960000D03*
X1367500Y1050000D03*
X1560500Y1060000D03*
G54D42*
X880000Y1080000D03*
Y1090000D03*
G54D38*
X1672315Y821831D03*
X1705780D03*
G54D37*
X1677512Y817737D03*
X1687512D03*
X1697512D03*
X1677512Y846831D03*
X1687512D03*
X1697512D03*
G54D39*
X1180000Y867500D03*
X1190000D03*
X1200000D03*
X1210000D03*
X1170000Y877500D03*
X1180000D03*
X1190000D03*
X1200000D03*
X1210000D03*
X1170000Y887500D03*
X1180000D03*
X1190000D03*
X1200000D03*
X1328000Y905000D03*
X1338000D03*
X1348000D03*
X1358000D03*
X1318000Y915000D03*
X1338000D03*
X1318000Y925000D03*
X1338000D03*
X1358000D03*
G54D29*
X800000Y680000D03*
X1880000D03*
X800000Y1230000D03*
X1880000D03*
G54D41*
X865000Y1075000D03*
X895000D03*
X865000Y1105000D03*
X895000D03*
G54D34*
X1168524Y778504D03*
G54D35*
X1230000Y782500D03*
Y801004D03*
Y819508D03*
G54D33*
X918839Y778504D03*
X1136161Y841496D03*
%LPD*%
G75*
G54D10*
X800000Y680000D03*
Y1230000D03*
X1880000Y680000D03*
Y1230000D03*
G54D20*
X1170000Y867500D03*
X1318000Y905000D03*
G54D11*
X865000Y1075000D03*
Y1105000D03*
X895000Y1075000D03*
Y1105000D03*
G54D21*
X1170000Y877500D03*
Y887500D03*
X1180000Y867500D03*
Y877500D03*
Y887500D03*
X1190000Y867500D03*
Y877500D03*
Y887500D03*
X1200000Y867500D03*
Y877500D03*
Y887500D03*
X1210000Y867500D03*
Y877500D03*
Y887500D03*
X1318000Y915000D03*
Y925000D03*
X1328000Y905000D03*
Y915000D03*
Y925000D03*
X1338000Y905000D03*
Y915000D03*
Y925000D03*
X1348000Y905000D03*
Y915000D03*
Y925000D03*
X1358000Y905000D03*
Y915000D03*
Y925000D03*
G54D12*
X880000Y1080000D03*
Y1090000D03*
G54D22*
X1230000Y782500D03*
Y801004D03*
Y819508D03*
G54D13*
X895000Y960000D03*
X1117500Y932500D03*
X1177500Y917500D03*
X1322500Y1050000D03*
X1447500Y845000D03*
X1515500Y1060000D03*
X1556000Y841500D03*
X1557500Y870000D03*
X1560000Y765000D03*
X1625000Y762500D03*
G54D14*
X918839Y778504D03*
X1136161Y841496D03*
G54D23*
X1430000Y757500D03*
X1440000Y722500D03*
X1523500Y805500D03*
X1597500Y997500D03*
G54D24*
X1456500Y894000D03*
X1457500Y925000D03*
G54D15*
X925800Y960000D03*
X1162500Y932500D03*
X1222500Y917500D03*
X1367500Y1050000D03*
X1492500Y845000D03*
X1560500Y1060000D03*
X1605000Y765000D03*
X1604000Y841500D03*
X1605500Y870000D03*
X1670000Y762500D03*
G54D16*
X940000Y1050000D03*
X955000Y1007500D03*
X975000Y982500D03*
Y1002500D03*
Y1017500D03*
X987500Y957500D03*
X1000000Y1060000D03*
X1015000Y977500D03*
X1092500Y1067500D03*
X1100000Y995000D03*
X1102500Y1052500D03*
X1127500Y892500D03*
X1155000Y1077500D03*
X1162500Y885000D03*
Y1062500D03*
X1175000Y872500D03*
Y895000D03*
X1172500Y1065000D03*
X1185000Y952500D03*
X1192500Y860000D03*
X1195000Y882500D03*
X1205000Y1055000D03*
X1215000Y870000D03*
Y880000D03*
X1210000Y892500D03*
X1212500Y1030000D03*
X1225000Y857500D03*
X1222500Y987500D03*
Y1012500D03*
X1225000Y1052500D03*
X1230551Y979520D03*
X1230000Y1020000D03*
X1237500Y897500D03*
Y995000D03*
Y1007500D03*
X1242500Y887500D03*
X1257500Y955000D03*
Y992500D03*
X1260000Y1137500D03*
X1262500Y987500D03*
X1272500Y980000D03*
X1280000Y920000D03*
X1275000Y940000D03*
X1277500Y970000D03*
X1280000Y1005000D03*
X1282500Y942500D03*
X1287500Y927500D03*
X1290000Y935000D03*
Y965000D03*
Y1032500D03*
X1295000Y927500D03*
X1305000Y917500D03*
X1300000Y922500D03*
X1307500Y932500D03*
X1310000Y967500D03*
X1317500Y870000D03*
X1322500Y920000D03*
X1328000Y925000D03*
X1332500Y912500D03*
X1348000Y905000D03*
Y925000D03*
X1370000Y877500D03*
X1397500Y895000D03*
X1405000Y905000D03*
X1456500Y894000D03*
X1475000Y757500D03*
X1487500Y870000D03*
X1492500Y882500D03*
X1497500Y875000D03*
X1520000Y825000D03*
Y827500D03*
Y882500D03*
X1537500Y772500D03*
X1532500Y820000D03*
X1535000Y840000D03*
X1552500Y817500D03*
X1605500Y870000D03*
X1615000Y960000D03*
X1620000Y937500D03*
X1627500Y895000D03*
X1636500Y805500D03*
X1652500Y935000D03*
X1830000Y997500D03*
G54D25*
X1487500Y894000D03*
X1488500Y925000D03*
G54D26*
X1672315Y821831D03*
X1705780D03*
G54D17*
X1130080Y1019850D03*
X1157640D03*
X1285080Y799850D03*
X1312640D03*
G54D27*
X1677512Y817737D03*
Y846831D03*
X1687512Y817737D03*
Y846831D03*
X1697512Y817737D03*
Y846831D03*
G54D18*
X1135000Y1010000D03*
X1152720D03*
X1290000Y790000D03*
X1307720D03*
X1543000Y757500D03*
X1553000Y722500D03*
X1636500Y805500D03*
X1710500Y997500D03*
G54D28*
G01X1155000Y1077500D02*
X1157500Y1092500D01*
X1145000Y1107500D01*
X932500D01*
X922500Y1072500D01*
X940000Y1050000D01*
G01X1092500Y1067500D02*
X1170000Y1042500D01*
X1222500Y1012500D01*
G01X1162500Y1062500D02*
Y1065000D01*
X1172500D01*
G01X1237500Y897500D02*
X1175000Y895000D01*
G01X1185000Y952500D02*
X1187500Y975000D01*
X1212500Y997500D01*
X1222500Y1002500D01*
X1225000Y1012500D01*
X1245000D01*
X1280000Y1005000D01*
G01X1225000Y1052500D02*
X1217500Y1060000D01*
X1205000Y1055000D01*
G01X1300000Y922500D02*
X1285000Y925000D01*
X1247500D01*
X1217500Y945000D01*
X1215000Y967500D01*
Y977500D01*
X1222500Y987500D01*
G01X1287500Y927500D02*
X1285000D01*
X1280000Y930000D01*
X1225000Y945000D01*
X1220000Y962500D01*
X1217500Y975000D01*
X1230551Y979520D01*
G01X1237500Y995000D02*
X1282500Y942500D01*
G01X1237500Y1007500D02*
X1240000Y1010000D01*
X1307500Y920000D01*
G01X1290000Y935000D02*
X1282500Y937500D01*
X1277500Y945000D01*
X1257500Y955000D01*
G01X1275000Y940000D02*
X1295000Y927500D01*
G01X1348000Y915000D02*
X1342500Y910000D01*
X1302500D01*
X1280000Y920000D01*
G01X1348000Y925000D02*
X1342500Y930000D01*
X1307500Y932500D01*
G01X1322500Y920000D02*
X1328000Y925000D01*
G01X1397500Y895000D02*
X1377500Y917500D01*
X1358000Y915000D01*
G54D19*
X1168524Y778504D03*
M02*
