G04 ================== begin FILE IDENTIFICATION RECORD ==================*
G04 Layout Name:  gateway multiprotocol.brd*
G04 Film Name:    GND*
G04 File Format:  Gerber RS274X*
G04 File Origin:  Cadence Allegro 25.1-S010*
G04 Origin Date:  Tue May 12 06:42:08 2026*
G04 *
G04 Layer:  ETCH/GND*
G04 Layer:  PIN/GND*
G04 Layer:  VIA CLASS/GND*
G04 *
G04 Offset:    (0.00 0.00)*
G04 Mirror:    No*
G04 Mode:      Positive*
G04 Rotation:  0*
G04 FullContactRelief:  No*
G04 UndefLineWidth:     0.00*
G04 ================== end FILE IDENTIFICATION RECORD ====================*
%FSLAX25Y25*MOIN*%
%IR0*IPPOS*OFA0.00000B0.00000*MIA0B0*SFA1.00000B1.00000*%
%ADD10C,.05*%
%ADD24C,.051*%
%ADD16C,.024*%
%ADD18C,.061*%
%ADD11C,.09*%
%ADD17C,.073*%
%ADD15C,.055*%
%ADD12C,.083*%
%ADD23R,.051X.051*%
%ADD22R,.061X.061*%
%ADD19C,.0941*%
%ADD13R,.055X.055*%
%ADD26C,.04725*%
%ADD25C,.02953*%
%ADD20C,.05394*%
%ADD21C,.11024*%
%ADD14C,.13583*%
%ADD27C,.005*%
%ADD39C,.06104*%
%ADD30C,.03404*%
%ADD29C,.07104*%
%ADD35C,.08304*%
%ADD31C,.06504*%
%ADD41C,.09304*%
%ADD37C,.04556*%
%ADD36C,.05728*%
%ADD38C,.06398*%
%ADD28R,.40004X.40004*%
%ADD40C,.10004*%
%ADD33C,.10414*%
%ADD34C,.12028*%
%ADD32C,.15186*%
G75*
%LPD*%
G75*
G36*
G01X705000Y1317500D02*
X1962500D01*
Y580000D01*
X705000D01*
Y1317500D01*
G37*
%LPC*%
G75*
G36*
G01X1512248Y1057250D02*
Y1062750D01*
G02X1512750Y1063252I502J0D01*
G01X1518250D01*
G02X1518752Y1062750I0J-502D01*
G01Y1057250D01*
G02X1518250Y1056748I-502J0D01*
G01X1512750D01*
G02X1512248Y1057250I0J502D01*
G37*
G36*
G01X1319248Y1047250D02*
Y1052750D01*
G02X1319750Y1053252I502J0D01*
G01X1325250D01*
G02X1325752Y1052750I0J-502D01*
G01Y1047250D01*
G02X1325250Y1046748I-502J0D01*
G01X1319750D01*
G02X1319248Y1047250I0J502D01*
G37*
G36*
G01X1593948Y994450D02*
Y1000550D01*
G02X1594450Y1001052I502J0D01*
G01X1600550D01*
G02X1601052Y1000550I0J-502D01*
G01Y994450D01*
G02X1600550Y993948I-502J0D01*
G01X1594450D01*
G02X1593948Y994450I0J502D01*
G37*
G36*
G01X891748Y957250D02*
Y962750D01*
G02X892250Y963252I502J0D01*
G01X897750D01*
G02X898252Y962750I0J-502D01*
G01Y957250D01*
G02X897750Y956748I-502J0D01*
G01X892250D01*
G02X891748Y957250I0J502D01*
G37*
G36*
G01X1114248Y929750D02*
Y935250D01*
G02X1114750Y935752I502J0D01*
G01X1120250D01*
G02X1120752Y935250I0J-502D01*
G01Y929750D01*
G02X1120250Y929248I-502J0D01*
G01X1114750D01*
G02X1114248Y929750I0J502D01*
G37*
G36*
G01X1454448Y922450D02*
Y927550D01*
G02X1454950Y928052I502J0D01*
G01X1460050D01*
G02X1460552Y927550I0J-502D01*
G01Y922450D01*
G02X1460050Y921948I-502J0D01*
G01X1454950D01*
G02X1454448Y922450I0J502D01*
G37*
G36*
G01X1174248Y914750D02*
Y920250D01*
G02X1174750Y920752I502J0D01*
G01X1180250D01*
G02X1180752Y920250I0J-502D01*
G01Y914750D01*
G02X1180250Y914248I-502J0D01*
G01X1174750D01*
G02X1174248Y914750I0J502D01*
G37*
G36*
G01X1453448Y891450D02*
Y896550D01*
G02X1453950Y897052I502J0D01*
G01X1459050D01*
G02X1459552Y896550I0J-502D01*
G01Y891450D01*
G02X1459050Y890948I-502J0D01*
G01X1453950D01*
G02X1453448Y891450I0J502D01*
G37*
G36*
G01X1554248Y867250D02*
Y872750D01*
G02X1554750Y873252I502J0D01*
G01X1560250D01*
G02X1560752Y872750I0J-502D01*
G01Y867250D01*
G02X1560250Y866748I-502J0D01*
G01X1554750D01*
G02X1554248Y867250I0J502D01*
G37*
G36*
G01X1444248Y842250D02*
Y847750D01*
G02X1444750Y848252I502J0D01*
G01X1450250D01*
G02X1450752Y847750I0J-502D01*
G01Y842250D01*
G02X1450250Y841748I-502J0D01*
G01X1444750D01*
G02X1444248Y842250I0J502D01*
G37*
G36*
G01X1552748Y838750D02*
Y844250D01*
G02X1553250Y844752I502J0D01*
G01X1558750D01*
G02X1559252Y844250I0J-502D01*
G01Y838750D01*
G02X1558750Y838248I-502J0D01*
G01X1553250D01*
G02X1552748Y838750I0J502D01*
G37*
G36*
G01X1519948Y802450D02*
Y808550D01*
G02X1520450Y809052I502J0D01*
G01X1526550D01*
G02X1527052Y808550I0J-502D01*
G01Y802450D01*
G02X1526550Y801948I-502J0D01*
G01X1520450D01*
G02X1519948Y802450I0J502D01*
G37*
G36*
G01X1556748Y762250D02*
Y767750D01*
G02X1557250Y768252I502J0D01*
G01X1562750D01*
G02X1563252Y767750I0J-502D01*
G01Y762250D01*
G02X1562750Y761748I-502J0D01*
G01X1557250D01*
G02X1556748Y762250I0J502D01*
G37*
G36*
G01X1621748Y759750D02*
Y765250D01*
G02X1622250Y765752I502J0D01*
G01X1627750D01*
G02X1628252Y765250I0J-502D01*
G01Y759750D01*
G02X1627750Y759248I-502J0D01*
G01X1622250D01*
G02X1621748Y759750I0J502D01*
G37*
G36*
G01X1426448Y754450D02*
Y760550D01*
G02X1426950Y761052I502J0D01*
G01X1433050D01*
G02X1433552Y760550I0J-502D01*
G01Y754450D01*
G02X1433050Y753948I-502J0D01*
G01X1426950D01*
G02X1426448Y754450I0J502D01*
G37*
G36*
G01X1436448Y719450D02*
Y725550D01*
G02X1436950Y726052I502J0D01*
G01X1443050D01*
G02X1443552Y725550I0J-502D01*
G01Y719450D01*
G02X1443050Y718948I-502J0D01*
G01X1436950D01*
G02X1436448Y719450I0J502D01*
G37*
G36*
G01X1208942Y891167D02*
G02X1208298Y892500I1058J1333D01*
G02X1211702I1702J0D01*
G02X1211058Y891167I-1702J0D01*
G03X1211161Y890481I249J-313D01*
G02X1213199Y887500I-1161J-2981D01*
G02X1206801I-3199J0D01*
G02X1208839Y890481I3199J0D01*
G03X1208942Y891167I-146J373D01*
G37*
G36*
G01X1330138Y912621D02*
G02X1328000Y911801I-2139J2379D01*
G02X1331199Y915000I0J3199D01*
G02X1331150Y914442I-3199J0D01*
G03X1331726Y914016I394J-70D01*
G02X1332500Y914202I774J-1516D01*
G02Y910798I0J-1702D01*
G02X1330804Y912357I0J1702D01*
G03X1330138Y912621I-399J-34D01*
G37*
G54D39*
X1487500Y894000D03*
X1488500Y925000D03*
G54D30*
X1475000Y757500D03*
X1537500Y772500D03*
X1532500Y820000D03*
X1552500Y817500D03*
X1192500Y860000D03*
X1225000Y857500D03*
X1175000Y872500D03*
X1215000Y870000D03*
X1317500D03*
X1487500D03*
X1215000Y880000D03*
X1370000Y877500D03*
X1497500Y875000D03*
X1162500Y885000D03*
X1195000Y882500D03*
X1492500D03*
X1520000D03*
X1127500Y892500D03*
X1242500Y887500D03*
X1175000Y895000D03*
X1237500Y897500D03*
X1627500Y895000D03*
X1405000Y905000D03*
X1305000Y917500D03*
X1280000Y920000D03*
X1300000Y922500D03*
X1322500Y920000D03*
X1287500Y927500D03*
X1295000D03*
X1290000Y935000D03*
X1307500Y932500D03*
X1620000Y937500D03*
X1652500Y935000D03*
X1275000Y940000D03*
X1282500Y942500D03*
X987500Y957500D03*
X1185000Y952500D03*
X1257500Y955000D03*
X1615000Y960000D03*
X1277500Y970000D03*
X1290000Y965000D03*
X1310000Y967500D03*
X975000Y982500D03*
X1015000Y977500D03*
X1230551Y979520D03*
X1272500Y980000D03*
X1222500Y987500D03*
X1262500D03*
X1100000Y995000D03*
X1237500D03*
X1257500Y992500D03*
X975000Y1002500D03*
X1830000Y997500D03*
X955000Y1007500D03*
X1237500D03*
X1280000Y1005000D03*
X1222500Y1012500D03*
X975000Y1017500D03*
X1230000Y1020000D03*
X1212500Y1030000D03*
X1290000Y1032500D03*
X940000Y1050000D03*
X1102500Y1052500D03*
X1000000Y1060000D03*
X1092500Y1067500D03*
X1155000Y1077500D03*
X1260000Y1137500D03*
G54D29*
X1553000Y722500D03*
X1543000Y757500D03*
X1290000Y790000D03*
X1307720D03*
X1636500Y805500D03*
X1710500Y997500D03*
X1135000Y1010000D03*
X1152720D03*
G54D35*
X1285080Y799850D03*
X1312640D03*
X1130080Y1019850D03*
X1157640D03*
G54D31*
X1670000Y762500D03*
X1605000Y765000D03*
X1604000Y841500D03*
X1492500Y845000D03*
X1605500Y870000D03*
X1222500Y917500D03*
X1162500Y932500D03*
X925800Y960000D03*
X1367500Y1050000D03*
X1560500Y1060000D03*
G54D41*
X880000Y1080000D03*
Y1090000D03*
G54D37*
X1672315Y821831D03*
X1705780D03*
G54D36*
X1677512Y817737D03*
X1687512D03*
X1697512D03*
X1677512Y846831D03*
X1687512D03*
X1697512D03*
G54D38*
X1170000Y867500D03*
X1180000D03*
X1190000D03*
X1200000D03*
X1210000D03*
X1170000Y877500D03*
X1180000D03*
X1190000D03*
X1200000D03*
X1210000D03*
X1170000Y887500D03*
X1180000D03*
X1190000D03*
X1200000D03*
X1318000Y905000D03*
X1328000D03*
X1338000D03*
X1348000D03*
X1358000D03*
X1318000Y915000D03*
X1338000D03*
X1348000D03*
X1358000D03*
X1318000Y925000D03*
X1328000D03*
X1338000D03*
X1348000D03*
X1358000D03*
G54D28*
X800000Y680000D03*
X1880000D03*
X800000Y1230000D03*
X1880000D03*
G54D40*
X865000Y1075000D03*
X895000D03*
X865000Y1105000D03*
X895000D03*
G54D33*
X1168524Y778504D03*
G54D34*
X1230000Y782500D03*
Y801004D03*
Y819508D03*
G54D32*
X918839Y778504D03*
X1136161Y841496D03*
%LPD*%
G75*
G54D10*
X800000Y680000D03*
Y1230000D03*
X1880000Y680000D03*
Y1230000D03*
G54D20*
X1170000Y867500D03*
Y877500D03*
Y887500D03*
X1180000Y867500D03*
Y877500D03*
Y887500D03*
X1190000Y867500D03*
Y877500D03*
Y887500D03*
X1200000Y867500D03*
Y877500D03*
Y887500D03*
X1210000Y867500D03*
Y877500D03*
Y887500D03*
X1318000Y905000D03*
Y915000D03*
Y925000D03*
X1328000Y905000D03*
Y915000D03*
Y925000D03*
X1338000Y905000D03*
Y915000D03*
Y925000D03*
X1348000Y905000D03*
Y915000D03*
Y925000D03*
X1358000Y905000D03*
Y915000D03*
Y925000D03*
G54D11*
X865000Y1075000D03*
Y1105000D03*
X895000Y1075000D03*
Y1105000D03*
G54D21*
X1230000Y782500D03*
Y801004D03*
Y819508D03*
G54D12*
X880000Y1080000D03*
Y1090000D03*
G54D13*
X895000Y960000D03*
X1117500Y932500D03*
X1177500Y917500D03*
X1322500Y1050000D03*
X1447500Y845000D03*
X1515500Y1060000D03*
X1556000Y841500D03*
X1557500Y870000D03*
X1560000Y765000D03*
X1625000Y762500D03*
G54D22*
X1430000Y757500D03*
X1440000Y722500D03*
X1523500Y805500D03*
X1597500Y997500D03*
G54D14*
X918839Y778504D03*
X1136161Y841496D03*
G54D23*
X1456500Y894000D03*
X1457500Y925000D03*
G54D15*
X925800Y960000D03*
X1162500Y932500D03*
X1222500Y917500D03*
X1367500Y1050000D03*
X1492500Y845000D03*
X1560500Y1060000D03*
X1605000Y765000D03*
X1604000Y841500D03*
X1605500Y870000D03*
X1670000Y762500D03*
G54D24*
X1487500Y894000D03*
X1488500Y925000D03*
G54D25*
X1672315Y821831D03*
X1705780D03*
G54D16*
X940000Y1050000D03*
X955000Y1007500D03*
X975000Y982500D03*
Y1002500D03*
Y1017500D03*
X987500Y957500D03*
X1000000Y1060000D03*
X1015000Y977500D03*
X1092500Y1067500D03*
X1100000Y995000D03*
X1102500Y1052500D03*
X1127500Y892500D03*
X1155000Y1077500D03*
X1162500Y885000D03*
Y1062500D03*
X1175000Y872500D03*
Y895000D03*
X1172500Y1065000D03*
X1185000Y952500D03*
X1192500Y860000D03*
X1195000Y882500D03*
X1205000Y1055000D03*
X1215000Y870000D03*
Y880000D03*
X1210000Y892500D03*
X1212500Y1030000D03*
X1225000Y857500D03*
X1222500Y987500D03*
Y1012500D03*
X1225000Y1052500D03*
X1230551Y979520D03*
X1230000Y1020000D03*
X1237500Y897500D03*
Y995000D03*
Y1007500D03*
X1242500Y887500D03*
X1257500Y955000D03*
Y992500D03*
X1260000Y1137500D03*
X1262500Y987500D03*
X1272500Y980000D03*
X1280000Y920000D03*
X1275000Y940000D03*
X1277500Y970000D03*
X1280000Y1005000D03*
X1282500Y942500D03*
X1287500Y927500D03*
X1290000Y935000D03*
Y965000D03*
Y1032500D03*
X1295000Y927500D03*
X1305000Y917500D03*
X1300000Y922500D03*
X1307500Y932500D03*
X1310000Y967500D03*
X1317500Y870000D03*
X1322500Y920000D03*
X1328000Y925000D03*
X1332500Y912500D03*
X1348000Y905000D03*
Y925000D03*
X1370000Y877500D03*
X1397500Y895000D03*
X1405000Y905000D03*
X1456500Y894000D03*
X1475000Y757500D03*
X1487500Y870000D03*
X1492500Y882500D03*
X1497500Y875000D03*
X1520000Y825000D03*
Y827500D03*
Y882500D03*
X1537500Y772500D03*
X1532500Y820000D03*
X1535000Y840000D03*
X1552500Y817500D03*
X1605500Y870000D03*
X1615000Y960000D03*
X1620000Y937500D03*
X1627500Y895000D03*
X1636500Y805500D03*
X1652500Y935000D03*
X1830000Y997500D03*
G54D26*
X1677512Y817737D03*
Y846831D03*
X1687512Y817737D03*
Y846831D03*
X1697512Y817737D03*
Y846831D03*
G54D17*
X1130080Y1019850D03*
X1157640D03*
X1285080Y799850D03*
X1312640D03*
G54D27*
G01X875148Y1080000D02*
X880000D01*
G01Y1075148D02*
Y1080000D01*
G01D02*
X884852D01*
G01X880000D02*
Y1084852D01*
G01X1114048Y932500D02*
X1117500D01*
G01Y929048D02*
Y932500D01*
G01D02*
X1120952D01*
G01X1117500D02*
Y935952D01*
G01X1148968Y1010000D02*
X1152720D01*
G01Y1006248D02*
Y1010000D01*
G01D02*
X1156472D01*
G01X1152720D02*
Y1013752D01*
G01X1180000Y864101D02*
Y867500D01*
G01D02*
X1183399D01*
G01X1176601D02*
X1180000D01*
G01D02*
Y870899D01*
G01X1206601Y877500D02*
X1210000D01*
G01D02*
X1213399D01*
G01X1210000D02*
Y880899D01*
G01Y874101D02*
Y877500D01*
G01X1219048Y917500D02*
X1222500D01*
G01Y914048D02*
Y917500D01*
G01D02*
X1225952D01*
G01X1222500D02*
Y920952D01*
G01X1303968Y790000D02*
X1307720D01*
G01Y786248D02*
Y790000D01*
G01D02*
X1311472D01*
G01X1307720D02*
Y793752D01*
G01X1354601Y915000D02*
X1358000D01*
G01D02*
X1361399D01*
G01X1358000D02*
Y918399D01*
G01Y911601D02*
Y915000D01*
G01X1539248Y757500D02*
X1543000D01*
G01X1549248Y722500D02*
X1553000D01*
G01X1543000Y753748D02*
Y757500D01*
G01D02*
X1546752D01*
G01X1543000D02*
Y761252D01*
G01X1553000Y722500D02*
X1556752D01*
G01X1553000D02*
Y726252D01*
G01Y718748D02*
Y722500D01*
G01X1552548Y841500D02*
X1556000D01*
G01X1554048Y870000D02*
X1557500D01*
G01X1556000Y838048D02*
Y841500D01*
G01D02*
X1559452D01*
G01X1556000D02*
Y844952D01*
G01X1557500Y870000D02*
X1560952D01*
G01X1557500D02*
Y873452D01*
G01Y866548D02*
Y870000D01*
G54D18*
X1135000Y1010000D03*
X1152720D03*
X1290000Y790000D03*
X1307720D03*
X1543000Y757500D03*
X1553000Y722500D03*
X1636500Y805500D03*
X1710500Y997500D03*
G54D19*
X1168524Y778504D03*
M02*
