G04 ================== begin FILE IDENTIFICATION RECORD ==================*
G04 Layout Name:  gateway multiprotocol.brd*
G04 Film Name:    TOP*
G04 File Format:  Gerber RS274X*
G04 File Origin:  Cadence Allegro 25.1-S010*
G04 Origin Date:  Tue May 12 06:42:08 2026*
G04 *
G04 Layer:  ETCH/TOP*
G04 Layer:  PIN/TOP*
G04 Layer:  VIA CLASS/TOP*
G04 *
G04 Offset:    (0.00 0.00)*
G04 Mirror:    No*
G04 Mode:      Positive*
G04 Rotation:  0*
G04 FullContactRelief:  No*
G04 UndefLineWidth:     0.00*
G04 ================== end FILE IDENTIFICATION RECORD ====================*
%FSLAX25Y25*MOIN*%
%IR0*IPPOS*OFA0.00000B0.00000*MIA0B0*SFA1.00000B1.00000*%
%ADD69R,.09X.2*%
%ADD68R,.095X.2*%
%ADD10C,.05*%
%ADD51C,.051*%
%ADD19C,.024*%
%ADD36C,.061*%
%ADD12C,.09*%
%ADD34C,.073*%
%ADD16C,.055*%
%ADD20R,.022X.022*%
%ADD13C,.083*%
%ADD48R,.051X.051*%
%ADD47R,.061X.061*%
%ADD37C,.0941*%
%ADD43R,.035X.035*%
%ADD14R,.055X.055*%
%ADD65C,.04725*%
%ADD63C,.02953*%
%ADD39C,.05394*%
%AMMACRO53*
4,1,40,.01649,-.0128,
-.01649,-.0128,
-.017046,-.012751,
-.017585,-.012606,
-.018091,-.01237,
-.018548,-.012049,
-.018942,-.011654,
-.019262,-.011197,
-.019498,-.010691,
-.019642,-.010151,
-.01969,-.0096,
-.01969,.0096,
-.019641,.010156,
-.019496,.010695,
-.01926,.011201,
-.018939,.011658,
-.018544,.012052,
-.018087,.012372,
-.017581,.012608,
-.017041,.012752,
-.01649,.0128,
.01649,.0128,
.017046,.012751,
.017585,.012606,
.018091,.01237,
.018548,.012049,
.018942,.011654,
.019262,.011197,
.019498,.010691,
.019642,.010151,
.01969,.0096,
.01969,-.0096,
.019641,-.010156,
.019496,-.010695,
.01926,-.011201,
.018939,-.011658,
.018544,-.012052,
.018087,-.012372,
.017581,-.012608,
.017041,-.012752,
.01649,-.0128,
0.0*
%
%ADD53MACRO53*%
%ADD44R,.07283X.13386*%
%ADD38R,.05394X.05394*%
%AMMACRO26*
4,1,40,.01801,-.01161,
-.01801,-.01161,
-.019018,-.011523,
-.019996,-.011261,
-.020913,-.010834,
-.021743,-.010254,
-.022459,-.009539,
-.02304,-.008711,
-.023468,-.007794,
-.023731,-.006816,
-.02382,-.00581,
-.02382,.00581,
-.023731,.006818,
-.023468,.007795,
-.023039,.008712,
-.022458,.009541,
-.021742,.010255,
-.020912,.010835,
-.019994,.011262,
-.019017,.011523,
-.01801,.01161,
.01801,.01161,
.019018,.011523,
.019996,.011261,
.020913,.010834,
.021743,.010254,
.022459,.009539,
.02304,.008711,
.023468,.007794,
.023731,.006816,
.02382,.00581,
.02382,-.00581,
.023731,-.006818,
.023468,-.007795,
.023039,-.008712,
.022458,-.009541,
.021742,-.010255,
.020912,-.010835,
.019994,-.011262,
.019017,-.011523,
.01801,-.01161,
0.0*
%
%ADD26MACRO26*%
%AMMACRO35*
4,1,40,-.01578,.00512,
.01578,.00512,
.015843,.005114,
.015904,.005097,
.015961,.00507,
.016013,.005033,
.016057,.004988,
.016093,.004936,
.016119,.004878,
.016135,.004817,
.01614,.00476,
.01614,-.00476,
.016134,-.004823,
.016117,-.004884,
.01609,-.004941,
.016053,-.004993,
.016008,-.005037,
.015956,-.005073,
.015898,-.005099,
.015837,-.005115,
.01578,-.00512,
-.01578,-.00512,
-.015843,-.005114,
-.015904,-.005097,
-.015961,-.00507,
-.016013,-.005033,
-.016057,-.004988,
-.016093,-.004936,
-.016119,-.004878,
-.016135,-.004817,
-.01614,-.00476,
-.01614,.00476,
-.016134,.004823,
-.016117,.004884,
-.01609,.004941,
-.016053,.004993,
-.016008,.005037,
-.015956,.005073,
-.015898,.005099,
-.015837,.005115,
-.01578,.00512,
0.0*
%
%ADD35MACRO35*%
%AMMACRO55*
4,1,40,.02116,-.01161,
-.02116,-.01161,
-.022168,-.011522,
-.023146,-.011261,
-.024064,-.010834,
-.024893,-.010254,
-.025609,-.009539,
-.02619,-.008711,
-.026618,-.007794,
-.026881,-.006816,
-.02697,-.00581,
-.02697,.00581,
-.026881,.006818,
-.026618,.007795,
-.026189,.008712,
-.025608,.009541,
-.024891,.010255,
-.024062,.010835,
-.023144,.011262,
-.022166,.011523,
-.02116,.01161,
.02116,.01161,
.022168,.011522,
.023146,.011261,
.024064,.010834,
.024893,.010254,
.025609,.009539,
.02619,.008711,
.026618,.007794,
.026881,.006816,
.02697,.00581,
.02697,-.00581,
.026881,-.006818,
.026618,-.007795,
.026189,-.008712,
.025608,-.009541,
.024891,-.010255,
.024062,-.010835,
.023144,-.011262,
.022166,-.011523,
.02116,-.01161,
0.0*
%
%ADD55MACRO55*%
%ADD25R,.04X.02*%
%ADD40R,.031X.014*%
%ADD50R,.022X.052*%
%ADD32R,.1063X.1063*%
%ADD22R,.032X.038*%
%ADD61R,.029X.014*%
%ADD41C,.11024*%
%ADD57R,.044X.057*%
%ADD42R,.059X.035*%
%ADD66R,.0315X.03543*%
%ADD45R,.0315X.079*%
%ADD24R,.05118X.02362*%
%ADD15C,.13583*%
%ADD60R,.04724X.02362*%
%ADD46R,.02638X.01181*%
%ADD59O,.02362X.07087*%
%ADD58O,.07087X.02362*%
%ADD64R,.0315X.04488*%
%ADD52R,.01981X.02165*%
%ADD28O,.01378X.02756*%
%ADD54R,.03543X.03819*%
%ADD49R,.05807X.01772*%
%ADD11R,.2937X.25472*%
%AMMACRO29*
4,1,44,.04213,-.0315,
-.04213,-.0315,
-.042672,-.031458,
-.043199,-.031321,
-.043695,-.031096,
-.044143,-.030788,
-.044531,-.030407,
-.044848,-.029964,
-.045082,-.029473,
-.045228,-.028948,
-.04528,-.028407,
-.04528,-.02835,
-.04528,.02835,
-.045238,.028892,
-.045101,.029419,
-.044876,.029915,
-.044568,.030363,
-.044187,.030751,
-.043744,.031068,
-.043253,.031302,
-.042728,.031448,
-.042187,.0315,
-.04213,.0315,
.04213,.0315,
.042672,.031458,
.043199,.031321,
.043695,.031096,
.044143,.030788,
.044531,.030407,
.044848,.029964,
.045082,.029473,
.045228,.028948,
.04528,.028407,
.04528,.02835,
.04528,-.02835,
.045238,-.028892,
.045101,-.029419,
.044876,-.029915,
.044568,-.030363,
.044187,-.030751,
.043744,-.031068,
.043253,-.031302,
.042728,-.031448,
.042187,-.0315,
.04213,-.0315,
0.0*
%
%ADD29MACRO29*%
%ADD27R,.03622X.03858*%
%ADD21R,.02362X.01969*%
%ADD23R,.09843X.07008*%
%ADD17R,.03959X.0374*%
%ADD18R,.08346X.05906*%
%ADD62R,.02756X.08268*%
%AMMACRO67*
4,1,40,-.01063,-.00618,
-.01063,.00618,
-.010544,.007158,
-.01029,.008106,
-.009875,.008996,
-.009311,.0098,
-.008617,.010494,
-.007813,.011056,
-.006923,.011471,
-.005974,.011725,
-.005,.01181,
.005,.01181,
.005978,.011724,
.006926,.01147,
.007816,.011055,
.00862,.010491,
.009314,.009797,
.009876,.008993,
.010291,.008103,
.010545,.007154,
.01063,.00618,
.01063,-.00618,
.010544,-.007158,
.01029,-.008106,
.009875,-.008996,
.009311,-.0098,
.008617,-.010494,
.007813,-.011056,
.006923,-.011471,
.005974,-.011725,
.005,-.01181,
-.005,-.01181,
-.005978,-.011724,
-.006926,-.01147,
-.007816,-.011055,
-.00862,-.010491,
-.009314,-.009797,
-.009876,-.008993,
-.010291,-.008103,
-.010545,-.007154,
-.01063,-.00618,
0.0*
%
%ADD67MACRO67*%
%AMMACRO56*
4,1,40,-.02116,.01161,
.02116,.01161,
.022168,.011522,
.023146,.011261,
.024064,.010834,
.024893,.010254,
.025609,.009539,
.02619,.008711,
.026618,.007794,
.026881,.006816,
.02697,.00581,
.02697,-.00581,
.026881,-.006818,
.026618,-.007795,
.026189,-.008712,
.025608,-.009541,
.024891,-.010255,
.024062,-.010835,
.023144,-.011262,
.022166,-.011523,
.02116,-.01161,
-.02116,-.01161,
-.022168,-.011522,
-.023146,-.011261,
-.024064,-.010834,
-.024893,-.010254,
-.025609,-.009539,
-.02619,-.008711,
-.026618,-.007794,
-.026881,-.006816,
-.02697,-.00581,
-.02697,.00581,
-.026881,.006818,
-.026618,.007795,
-.026189,.008712,
-.025608,.009541,
-.024891,.010255,
-.024062,.010835,
-.023144,.011262,
-.022166,.011523,
-.02116,.01161,
0.0*
%
%ADD56MACRO56*%
%AMMACRO31*
4,1,40,.01578,-.00512,
-.01578,-.00512,
-.015843,-.005114,
-.015904,-.005097,
-.015961,-.00507,
-.016013,-.005033,
-.016057,-.004988,
-.016093,-.004936,
-.016119,-.004878,
-.016135,-.004817,
-.01614,-.00476,
-.01614,.00476,
-.016134,.004823,
-.016117,.004884,
-.01609,.004941,
-.016053,.004993,
-.016008,.005037,
-.015956,.005073,
-.015898,.005099,
-.015837,.005115,
-.01578,.00512,
.01578,.00512,
.015843,.005114,
.015904,.005097,
.015961,.00507,
.016013,.005033,
.016057,.004988,
.016093,.004936,
.016119,.004878,
.016135,.004817,
.01614,.00476,
.01614,-.00476,
.016134,-.004823,
.016117,-.004884,
.01609,-.004941,
.016053,-.004993,
.016008,-.005037,
.015956,-.005073,
.015898,-.005099,
.015837,-.005115,
.01578,-.00512,
0.0*
%
%ADD31MACRO31*%
%AMMACRO30*
4,1,40,-.00512,-.01578,
-.00512,.01578,
-.005114,.015843,
-.005097,.015904,
-.00507,.015961,
-.005033,.016013,
-.004988,.016057,
-.004936,.016093,
-.004878,.016119,
-.004817,.016135,
-.00476,.01614,
.00476,.01614,
.004823,.016134,
.004884,.016117,
.004941,.01609,
.004993,.016053,
.005037,.016008,
.005073,.015956,
.005099,.015898,
.005115,.015837,
.00512,.01578,
.00512,-.01578,
.005114,-.015843,
.005097,-.015904,
.00507,-.015961,
.005033,-.016013,
.004988,-.016057,
.004936,-.016093,
.004878,-.016119,
.004817,-.016135,
.00476,-.01614,
-.00476,-.01614,
-.004823,-.016134,
-.004884,-.016117,
-.004941,-.01609,
-.004993,-.016053,
-.005037,-.016008,
-.005073,-.015956,
-.005099,-.015898,
-.005115,-.015837,
-.00512,-.01578,
0.0*
%
%ADD30MACRO30*%
%AMMACRO33*
4,1,40,.01618,-.00512,
-.01618,-.00512,
-.016243,-.005114,
-.016305,-.005096,
-.016362,-.005068,
-.016414,-.005031,
-.016458,-.004986,
-.016494,-.004933,
-.01652,-.004875,
-.016535,-.004813,
-.01654,-.00476,
-.01654,.00476,
-.016534,.004823,
-.016516,.004885,
-.016488,.004942,
-.016451,.004994,
-.016406,.005038,
-.016353,.005074,
-.016295,.0051,
-.016233,.005115,
-.01618,.00512,
.01618,.00512,
.016243,.005114,
.016305,.005096,
.016362,.005068,
.016414,.005031,
.016458,.004986,
.016494,.004933,
.01652,.004875,
.016535,.004813,
.01654,.00476,
.01654,-.00476,
.016534,-.004823,
.016516,-.004885,
.016488,-.004942,
.016451,-.004994,
.016406,-.005038,
.016353,-.005074,
.016295,-.0051,
.016233,-.005115,
.01618,-.00512,
0.0*
%
%ADD33MACRO33*%
%ADD70C,.005*%
G75*
%LPD*%
G75*
G54D10*
X800000Y680000D03*
Y1230000D03*
X1880000Y680000D03*
Y1230000D03*
G54D11*
X871319Y810000D03*
X1183681D03*
G54D20*
X957850Y1062990D03*
X962050D03*
X957850Y1074990D03*
X962050D03*
X1097500Y907500D03*
X1093300D03*
X1624850Y947490D03*
X1629050D03*
X1655850Y867490D03*
X1660050D03*
X1671850Y913490D03*
X1676050D03*
X1737850Y877490D03*
X1742050D03*
X1751850D03*
X1756050D03*
X1762850Y981490D03*
X1765850Y877490D03*
X1767050Y981490D03*
X1770050Y877490D03*
X1816850Y981490D03*
X1821050D03*
G54D30*
X1123079Y887303D03*
Y902697D03*
X1127016Y887303D03*
X1125047D03*
X1128984D03*
X1125047Y902697D03*
X1127016D03*
X1128984D03*
X1132921Y887303D03*
X1130953D03*
Y902697D03*
X1132921D03*
G54D21*
X975000Y953575D03*
Y950425D03*
Y966425D03*
Y969575D03*
G54D12*
X865000Y1075000D03*
Y1105000D03*
X895000Y1075000D03*
Y1105000D03*
G54D31*
X1120303Y890079D03*
Y892047D03*
Y894016D03*
Y895984D03*
Y897953D03*
G54D22*
X970000Y1070000D03*
X975600D03*
X990000D03*
X995600D03*
G54D40*
X1193800Y952441D03*
Y955000D03*
Y957559D03*
X1202200Y955000D03*
Y952441D03*
Y957559D03*
G54D13*
X880000Y1080000D03*
Y1090000D03*
G54D23*
X1013650Y1008319D03*
Y1018319D03*
Y1028319D03*
Y1038319D03*
Y1048319D03*
Y1058319D03*
Y1068319D03*
Y1078319D03*
X1082350Y1008319D03*
Y1018319D03*
Y1028319D03*
Y1038319D03*
Y1048319D03*
Y1058319D03*
Y1068319D03*
Y1078319D03*
G54D41*
X1230000Y782500D03*
Y801004D03*
Y819508D03*
G54D32*
X1128000Y895000D03*
G54D50*
X1463750Y865300D03*
X1471250D03*
X1467500Y874700D03*
X1696250Y775300D03*
X1703750D03*
X1700000Y784700D03*
G54D14*
X895000Y960000D03*
X1117500Y932500D03*
X1177500Y917500D03*
X1322500Y1050000D03*
X1447500Y845000D03*
X1515500Y1060000D03*
X1556000Y841500D03*
X1557500Y870000D03*
X1560000Y765000D03*
X1625000Y762500D03*
G54D33*
X1120244Y899921D03*
G54D60*
X1647079Y798760D03*
Y802500D03*
Y806240D03*
X1656921Y798760D03*
Y806240D03*
G54D15*
X918839Y778504D03*
X1136161Y841496D03*
G54D24*
X1033866Y881260D03*
Y888740D03*
X1042134Y885000D03*
G54D42*
X1230551Y954520D03*
Y959520D03*
Y964520D03*
Y969520D03*
Y974520D03*
Y979520D03*
Y984520D03*
Y989520D03*
Y994520D03*
Y999520D03*
Y1004520D03*
Y1009520D03*
Y1014520D03*
Y1019520D03*
Y1024520D03*
Y1029520D03*
Y1034520D03*
Y1039520D03*
Y1044520D03*
X1299449Y954520D03*
Y959520D03*
Y969520D03*
Y964520D03*
Y974520D03*
Y979520D03*
Y984520D03*
Y994520D03*
Y989520D03*
Y999520D03*
Y1004520D03*
Y1014520D03*
Y1009520D03*
Y1019520D03*
Y1024520D03*
Y1034520D03*
Y1029520D03*
Y1039520D03*
Y1044520D03*
G54D51*
X1487500Y894000D03*
X1488500Y925000D03*
G54D70*
G01X880000Y1090000D02*
X887500Y1087500D01*
Y1072500D01*
X905000Y1065000D01*
X952500Y1060000D01*
X960419Y1061359D01*
X962050Y1062990D01*
G01X990000Y1072650D02*
X985000Y1082500D01*
X942500Y1085000D01*
X933135Y1081620D01*
Y1079000D01*
G01X1212500Y1030000D02*
X1167500Y952500D01*
X1115000Y947500D01*
X1120000Y980000D01*
X1105000D01*
X1110000Y990000D01*
X1065000Y987500D01*
X1017500D01*
X962500Y990000D01*
X940000Y1015000D01*
X965000Y1027500D01*
X1000000D01*
X1007978Y1028319D01*
X1013650D01*
G01X1000000Y1060000D02*
X940000Y1050000D01*
G01X938865Y1079000D02*
X941595D01*
X956000Y1074990D01*
X957850D01*
G01X955000Y1007500D02*
X965000Y1022500D01*
X1007978Y1018319D01*
X1013650D01*
G01X957850Y1074990D02*
Y1062990D01*
G01Y1074990D02*
X956219Y1076621D01*
X957500Y1080000D01*
X970000D01*
Y1070000D01*
G01X987500Y957500D02*
X976931Y953575D01*
X975000D01*
G01Y969575D02*
Y982500D01*
G01Y1002500D02*
Y1017500D01*
G01X995600Y1070000D02*
Y1067350D01*
X995000Y1065000D01*
X985000D01*
X977731Y1067569D01*
X975600Y1069700D01*
Y1070000D01*
G01X990000Y1072650D02*
Y1070000D01*
G01Y1072650D02*
X992500Y1077500D01*
X1007978Y1078319D01*
X1013650D01*
G01Y1058319D02*
X1007978D01*
X1000000Y1060000D01*
G01X1210000Y892500D02*
X1220000D01*
X1217750Y908250D01*
X1212500Y910000D01*
X1205000Y915000D01*
Y937500D01*
X1180000D01*
X1150000Y940000D01*
X1102500Y942500D01*
X1015000Y977500D01*
G01X1082350Y1058319D02*
X1088022D01*
X1162500Y1102500D01*
X1312500Y1085000D01*
X1315000Y1017500D01*
X1307500Y1007500D01*
X1303149Y1009520D01*
X1299449D01*
G01X1092500Y1067500D02*
X1088022Y1068319D01*
X1082350D01*
G01X1102500Y1052500D02*
X1100000Y995000D01*
G01X1120303Y892047D02*
Y890079D01*
G01X1127500Y892500D02*
X1120303Y894016D01*
G01X1128235Y868504D02*
X1157500Y855000D01*
X1290000Y845000D01*
X1315000Y887500D01*
X1365000Y895000D01*
X1372500Y910000D01*
Y925000D01*
X1358000D01*
G01X1170000Y877500D02*
X1155000D01*
Y867500D01*
X1167500Y857500D01*
X1197537Y852982D01*
X1220000Y855000D01*
X1225000Y857500D01*
G01X1155000Y1077500D02*
X1156949Y1057679D01*
Y1055000D01*
G01X1174449D02*
Y1057679D01*
X1155000Y1077500D01*
G01X1230551Y1039520D02*
X1229351D01*
X1227070Y1041801D01*
X1217500Y1052500D01*
X1155000Y1077500D01*
G01X1162500Y885000D02*
X1180000Y877500D01*
G01X1163051Y1055000D02*
Y1057679D01*
X1162500Y1062500D01*
G01X1175000Y872500D02*
X1170000Y867500D01*
G01X1175000Y895000D02*
X1180000Y887500D01*
G01X1180551Y1055118D02*
Y1057679D01*
X1172500Y1065000D01*
G01X1180551Y1055118D02*
X1182893Y1057460D01*
X1189973Y1062433D01*
X1195551Y1057679D01*
Y1055000D01*
G01X1180551D02*
Y1055118D01*
G01X1185000Y952500D02*
X1191500Y952441D01*
X1193800D01*
G01X1192500Y860000D02*
X1190000Y867500D01*
G01X1195000Y882500D02*
X1190000Y887500D01*
G01X1230551Y1034520D02*
X1226851D01*
X1220000Y1035000D01*
X1195000Y1047500D01*
X1189449Y1052321D01*
Y1055000D01*
G01X1200000Y877500D02*
X1212500Y882500D01*
X1222500Y892500D01*
X1227500Y907500D01*
X1230000Y922500D01*
X1220000Y947500D01*
Y1012500D01*
X1222500Y1020000D01*
X1226851Y1024520D01*
X1230551D01*
G01X1195551Y1055000D02*
X1205000D01*
G01X1215000Y870000D02*
X1343913Y850770D01*
X1344683Y850000D01*
X1349075D01*
G01X1242500Y887500D02*
X1215000Y880000D01*
G01X1280000Y920000D02*
X1270000Y922500D01*
X1242500Y942500D01*
X1227500Y945000D01*
X1222500Y955000D01*
Y982500D01*
X1226851Y984520D01*
X1230551D01*
G01Y994520D02*
X1229351D01*
X1227070Y992239D01*
X1222500Y987500D01*
G01X1230551Y1014520D02*
X1226851D01*
X1222500Y1012500D01*
G01X1225000Y1052500D02*
X1230551Y1047020D01*
Y1044520D01*
G01Y969520D02*
X1234251D01*
X1257500Y955000D01*
G01X1338000Y905000D02*
X1337500Y895000D01*
X1315000Y892500D01*
X1285000Y920000D01*
X1257500Y960000D01*
X1245000Y975000D01*
X1234032Y987239D01*
X1231751Y989520D01*
X1230551D01*
G01Y999520D02*
X1234251D01*
X1237500Y995000D01*
G01X1275000Y940000D02*
X1252500Y972500D01*
X1237500Y1002500D01*
X1234251Y1004520D01*
X1230551D01*
G01Y1009520D02*
X1234251D01*
X1237500Y1007500D01*
G01X1328000Y905000D02*
X1320000Y910000D01*
X1305000Y912500D01*
X1277500Y942500D01*
X1272500Y952500D01*
X1257500Y980000D01*
X1247500Y987500D01*
X1237500Y1015000D01*
X1234251Y1019520D01*
X1230551D01*
G01X1257500Y992500D02*
X1267500Y1000000D01*
X1295968Y1032239D01*
X1298249Y1034520D01*
X1299449D01*
G01Y1029520D02*
X1298249D01*
X1295968Y1027239D01*
X1262500Y987500D01*
G01X1299449Y1044520D02*
X1298249D01*
X1295968Y1042239D01*
X1266887Y1021604D01*
X1264606Y1019323D01*
G01X1593700Y997500D02*
X1591006Y1000194D01*
X1260000Y1137500D01*
G01X1277500Y970000D02*
X1290000Y1005000D01*
X1295968Y1017239D01*
X1298249Y1019520D01*
X1299449D01*
G01Y1024520D02*
X1298249D01*
X1295968Y1022239D01*
X1272500Y980000D01*
G01X1328000Y915000D02*
X1320000Y932500D01*
X1302500Y937500D01*
X1282500Y942500D01*
G01X1358000Y905000D02*
X1355000Y910000D01*
X1332500D01*
Y897500D01*
X1307500Y902500D01*
X1287500Y927500D01*
G01X1290000Y935000D02*
X1307500Y932500D01*
G01X1299449Y1004520D02*
X1295749D01*
X1292500Y1002500D01*
X1290000Y965000D01*
G01X1299449Y1039520D02*
X1298249D01*
X1295968Y1037239D01*
X1290000Y1032500D01*
G01X1295000Y927500D02*
X1318000Y925000D01*
G01X1300000Y922500D02*
X1322500Y920000D01*
G01X1332500Y912500D02*
Y925000D01*
X1322500Y940000D01*
X1302930Y967239D01*
X1300649Y969520D01*
X1299449D01*
G01X1338000Y925000D02*
X1332500Y935000D01*
X1305000Y967500D01*
X1302930Y972239D01*
X1300649Y974520D01*
X1299449D01*
G01Y979520D02*
X1300649D01*
X1302930Y977239D01*
X1310000Y967500D01*
G01X1338000Y915000D02*
X1342500Y922500D01*
Y932500D01*
X1302930Y982239D01*
X1300649Y984520D01*
X1299449D01*
G01X1305000Y917500D02*
X1318000Y915000D01*
G01X1305000Y917500D02*
X1307500Y920000D01*
G01X1317500Y870000D02*
X1325000Y867500D01*
X1350000Y865000D01*
X1366533Y878000D01*
X1370925D01*
G01X1349075Y850000D02*
X1350000D01*
G01X1593700Y997500D02*
X1447500Y955000D01*
X1353467Y878000D01*
X1349075D01*
G01X1480000Y1022500D02*
X1492500D01*
X1467500Y1050000D01*
X1367500D01*
G01X1370925Y878000D02*
X1370000Y877500D01*
G01X1423711Y877953D02*
X1421642D01*
X1412500Y877500D01*
X1393291Y860460D01*
X1390949Y858118D01*
Y858000D01*
G01X1423711Y875984D02*
X1415000Y872500D01*
X1420000Y862500D01*
X1407500Y835000D01*
X1430000Y761300D01*
Y757500D01*
G01X1405000Y905000D02*
X1442500Y935000D01*
X1475000Y950000D01*
X1710500Y997500D01*
G01X1457500Y925000D02*
X1454419Y921919D01*
X1425000Y882500D01*
X1427500Y872500D01*
X1429537Y872047D01*
G01X1430000Y757500D02*
X1475000D01*
G01X1428937Y842000D02*
Y846700D01*
X1432500Y875000D01*
X1431606Y875984D01*
X1429537D01*
G01X1440000Y722500D02*
X1443581Y726081D01*
X1542606Y787059D01*
X1544909Y789362D01*
Y789500D01*
G01X1459051Y1036000D02*
X1450000Y1045000D01*
X1445051Y1038679D01*
Y1036000D01*
G01X1457500Y925000D02*
X1460581Y921919D01*
X1504602Y895614D01*
X1506124Y894092D01*
Y894000D01*
G01X1471250Y865300D02*
X1473100D01*
X1487500Y870000D01*
G01X1492500Y845000D02*
X1487500Y894000D01*
G01X1509876D02*
Y895833D01*
X1488500Y925000D01*
G01X1492500Y845000D02*
X1539947Y826240D01*
X1543394D01*
G01X1492500Y882500D02*
X1497500Y875000D01*
G01X1509876Y894000D02*
Y892167D01*
X1528949Y844179D01*
Y841500D01*
G01X1543394Y822500D02*
X1539947D01*
X1520000Y825000D01*
G01D02*
Y827500D01*
G01Y882500D02*
X1537500Y885000D01*
X1605500Y870000D01*
G01X1543394Y818760D02*
X1539947D01*
X1532500Y820000D01*
G01X1560000Y765000D02*
X1556500D01*
X1537500Y772500D01*
G01X1552606Y822500D02*
X1549159D01*
X1546622Y824548D01*
X1544930Y826240D01*
X1543394D01*
G01X1597500Y997500D02*
X1593700D01*
G01X1620000Y937500D02*
X1617587Y955171D01*
G01X1616051Y959500D02*
Y956821D01*
X1617587Y955171D01*
G01D02*
X1623219Y949121D01*
X1624850Y947490D01*
G01X1647079Y798760D02*
Y796829D01*
X1628281Y765781D01*
X1625000Y762500D01*
G01X1647450Y891900D02*
X1647500Y885000D01*
X1632500Y880000D01*
X1627450Y891900D01*
Y895500D01*
G01X1647079Y806240D02*
X1648260D01*
X1649972Y804528D01*
X1670000Y762500D01*
G01X1647450Y891900D02*
X1647087Y808179D01*
X1647079Y808171D01*
Y806240D01*
G01X1647450Y895500D02*
Y891900D01*
G01X1667450Y895500D02*
Y899100D01*
X1652500Y935000D01*
G01X1751850Y877490D02*
Y879340D01*
X1752500Y882500D01*
X1805000Y922500D01*
X1776750Y1025305D01*
Y1036055D01*
G01X1794000D02*
X1811250D01*
G01X1825693Y1015500D02*
Y1017431D01*
X1816531Y1025524D01*
X1811250Y1030805D01*
Y1036055D01*
G01X1850000D02*
X1825000Y957500D01*
X1816850Y979640D01*
Y981490D01*
G01D02*
Y983340D01*
X1825693Y1013569D01*
Y1015500D01*
G01X1821050Y981490D02*
X1822681Y983121D01*
X1830000Y997500D01*
G01X1867250Y1036055D02*
Y1030805D01*
X1861969Y1025524D01*
X1850000Y1030000D01*
Y1036055D01*
G54D52*
X1509876Y894000D03*
X1506124D03*
G54D61*
X1643900Y849900D03*
Y852500D03*
Y855100D03*
X1652100Y852500D03*
Y849900D03*
Y855100D03*
G54D25*
X1032100Y918760D03*
Y922500D03*
Y926240D03*
X1042900Y922500D03*
Y918760D03*
Y926240D03*
G54D43*
X1253583Y1008299D03*
Y1013811D03*
Y1019323D03*
X1259094Y1008299D03*
Y1013811D03*
Y1019323D03*
X1264606Y1008299D03*
Y1013811D03*
Y1019323D03*
G54D16*
X925800Y960000D03*
X1162500Y932500D03*
X1222500Y917500D03*
X1367500Y1050000D03*
X1492500Y845000D03*
X1560500Y1060000D03*
X1605000Y765000D03*
X1604000Y841500D03*
X1605500Y870000D03*
X1670000Y762500D03*
G54D34*
X1130080Y1019850D03*
X1157640D03*
X1285080Y799850D03*
X1312640D03*
G54D62*
X1666409Y816910D03*
Y864154D03*
X1717591Y816910D03*
Y864154D03*
G54D17*
X933135Y1079000D03*
X938865D03*
G54D35*
X1135697Y890079D03*
Y895984D03*
Y894016D03*
Y892047D03*
Y899921D03*
Y897953D03*
G54D26*
X1055059Y881260D03*
Y888740D03*
X1064941Y885000D03*
G54D44*
X1349075Y850000D03*
Y878000D03*
X1370925Y850000D03*
Y878000D03*
G54D53*
X1517276Y1026260D03*
Y1033740D03*
X1526724Y1030000D03*
G54D18*
X941673Y960000D03*
X958327D03*
G54D27*
X1084949Y876000D03*
X1091051D03*
X1098949D03*
X1105051D03*
X1128949D03*
X1135051D03*
X1156949Y1055000D03*
X1163051D03*
X1174449Y902500D03*
Y1055000D03*
X1180551Y902500D03*
Y1055000D03*
X1188449Y902500D03*
X1189449Y1055000D03*
X1194551Y902500D03*
X1195551Y1055000D03*
X1202449Y902500D03*
X1208551D03*
X1390949Y858000D03*
Y894000D03*
X1397051Y858000D03*
Y894000D03*
X1404949Y858000D03*
Y894000D03*
X1411051Y858000D03*
Y894000D03*
X1438949Y1036000D03*
X1445051D03*
X1452949D03*
X1459051D03*
X1528949Y841500D03*
X1535051D03*
X1614949Y917500D03*
X1609949Y959500D03*
X1621051Y917500D03*
X1616051Y959500D03*
X1633949Y742500D03*
X1630949Y867500D03*
X1634949Y911500D03*
X1640051Y742500D03*
X1637051Y867500D03*
X1641051Y911500D03*
X1647949Y742500D03*
X1654051D03*
X1648949Y911500D03*
X1655051D03*
X1661949Y742500D03*
X1668051D03*
X1708949Y877500D03*
X1715051D03*
X1722949D03*
X1720949Y919500D03*
X1729051Y877500D03*
X1727051Y919500D03*
X1734949D03*
X1741051D03*
X1748949D03*
X1755051D03*
G54D54*
X1544909Y789500D03*
X1551091D03*
G54D45*
X1421063Y842000D03*
X1428937D03*
G54D63*
X1672315Y821831D03*
X1705780D03*
G54D36*
X1135000Y1010000D03*
X1152720D03*
X1290000Y790000D03*
X1307720D03*
X1543000Y757500D03*
X1553000Y722500D03*
X1636500Y805500D03*
X1710500Y997500D03*
G54D28*
X1084547Y922185D03*
Y932815D03*
X1090453Y922185D03*
X1088484D03*
X1086516D03*
Y932815D03*
X1088484D03*
X1090453D03*
G54D64*
X1672984Y869981D03*
X1677984D03*
X1682984D03*
X1687984D03*
X1692984D03*
X1697984D03*
X1701724D03*
G54D46*
X1423711Y872047D03*
Y874016D03*
Y875984D03*
Y877953D03*
X1429537D03*
Y875984D03*
Y874016D03*
Y872047D03*
G54D55*
X1543394Y818760D03*
Y822500D03*
Y826240D03*
G54D37*
X1168524Y778504D03*
G54D19*
X940000Y1050000D03*
X955000Y1007500D03*
X975000Y982500D03*
Y1002500D03*
Y1017500D03*
X987500Y957500D03*
X1000000Y1060000D03*
X1015000Y977500D03*
X1092500Y1067500D03*
X1100000Y995000D03*
X1102500Y1052500D03*
X1127500Y892500D03*
X1155000Y1077500D03*
X1162500Y885000D03*
Y1062500D03*
X1175000Y872500D03*
Y895000D03*
X1172500Y1065000D03*
X1185000Y952500D03*
X1192500Y860000D03*
X1195000Y882500D03*
X1205000Y1055000D03*
X1215000Y870000D03*
Y880000D03*
X1210000Y892500D03*
X1212500Y1030000D03*
X1225000Y857500D03*
X1222500Y987500D03*
Y1012500D03*
X1225000Y1052500D03*
X1230551Y979520D03*
X1230000Y1020000D03*
X1237500Y897500D03*
Y995000D03*
Y1007500D03*
X1242500Y887500D03*
X1257500Y955000D03*
Y992500D03*
X1260000Y1137500D03*
X1262500Y987500D03*
X1272500Y980000D03*
X1280000Y920000D03*
X1275000Y940000D03*
X1277500Y970000D03*
X1280000Y1005000D03*
X1282500Y942500D03*
X1287500Y927500D03*
X1290000Y935000D03*
Y965000D03*
Y1032500D03*
X1295000Y927500D03*
X1305000Y917500D03*
X1300000Y922500D03*
X1307500Y932500D03*
X1310000Y967500D03*
X1317500Y870000D03*
X1322500Y920000D03*
X1328000Y925000D03*
X1332500Y912500D03*
X1348000Y905000D03*
Y925000D03*
X1370000Y877500D03*
X1397500Y895000D03*
X1405000Y905000D03*
X1456500Y894000D03*
X1475000Y757500D03*
X1487500Y870000D03*
X1492500Y882500D03*
X1497500Y875000D03*
X1520000Y825000D03*
Y827500D03*
Y882500D03*
X1537500Y772500D03*
X1532500Y820000D03*
X1535000Y840000D03*
X1552500Y817500D03*
X1605500Y870000D03*
X1615000Y960000D03*
X1620000Y937500D03*
X1627500Y895000D03*
X1636500Y805500D03*
X1652500Y935000D03*
X1830000Y997500D03*
G54D56*
X1552606Y818760D03*
Y826240D03*
Y822500D03*
G54D29*
X1087500Y927500D03*
G54D38*
X1170000Y867500D03*
X1318000Y905000D03*
G54D65*
X1677512Y817737D03*
Y846831D03*
X1687512Y817737D03*
Y846831D03*
X1697512Y817737D03*
Y846831D03*
G54D47*
X1430000Y757500D03*
X1440000Y722500D03*
X1523500Y805500D03*
X1597500Y997500D03*
G54D66*
X1742669Y981500D03*
X1751331D03*
G54D57*
X1620550Y895500D03*
X1627450D03*
X1640550D03*
X1647450D03*
X1660550D03*
X1667450D03*
G54D39*
X1170000Y877500D03*
Y887500D03*
X1180000Y867500D03*
Y877500D03*
Y887500D03*
X1190000Y867500D03*
Y877500D03*
Y887500D03*
X1200000Y867500D03*
Y877500D03*
Y887500D03*
X1210000Y867500D03*
Y877500D03*
Y887500D03*
X1318000Y915000D03*
Y925000D03*
X1328000Y905000D03*
Y915000D03*
Y925000D03*
X1338000Y905000D03*
Y915000D03*
Y925000D03*
X1348000Y905000D03*
Y915000D03*
Y925000D03*
X1358000Y905000D03*
Y915000D03*
Y925000D03*
G54D48*
X1456500Y894000D03*
X1457500Y925000D03*
G54D67*
X1750307Y1015500D03*
X1753693D03*
X1768307D03*
X1771693D03*
X1825693D03*
X1822307D03*
G54D49*
X1456433Y1000484D03*
Y1003043D03*
Y1005602D03*
Y1008161D03*
Y1010720D03*
Y1013280D03*
Y1015839D03*
Y1018398D03*
Y1020957D03*
Y1023516D03*
X1479567Y1000484D03*
Y1005602D03*
Y1003043D03*
Y1013280D03*
Y1010720D03*
Y1008161D03*
Y1018398D03*
Y1015839D03*
Y1023516D03*
Y1020957D03*
G54D58*
X1620551Y1056161D03*
Y1060098D03*
Y1064035D03*
Y1067972D03*
Y1071909D03*
Y1075846D03*
Y1079783D03*
Y1083720D03*
Y1087657D03*
Y1091594D03*
Y1095531D03*
Y1103406D03*
Y1099469D03*
Y1107343D03*
Y1111280D03*
Y1115217D03*
Y1119154D03*
Y1123091D03*
Y1127028D03*
Y1130965D03*
Y1134902D03*
X1739449Y1056161D03*
Y1060098D03*
Y1064035D03*
Y1071909D03*
Y1067972D03*
Y1075846D03*
Y1083720D03*
Y1079783D03*
Y1091594D03*
Y1087657D03*
Y1095531D03*
Y1103406D03*
Y1099469D03*
Y1111280D03*
Y1107343D03*
Y1115217D03*
Y1123091D03*
Y1119154D03*
Y1130965D03*
Y1127028D03*
Y1134902D03*
Y1138839D03*
G54D59*
X1638661Y1038051D03*
Y1156949D03*
X1646535Y1038051D03*
X1642598D03*
Y1156949D03*
X1646535D03*
X1650472Y1038051D03*
Y1156949D03*
X1658346Y1038051D03*
X1654409D03*
Y1156949D03*
X1658346D03*
X1666220Y1038051D03*
X1662283D03*
Y1156949D03*
X1666220D03*
X1670157Y1038051D03*
Y1156949D03*
X1678031Y1038051D03*
X1674094D03*
Y1156949D03*
X1678031D03*
X1685906Y1038051D03*
X1681969D03*
Y1156949D03*
X1685906D03*
X1689843Y1038051D03*
Y1156949D03*
X1697717Y1038051D03*
X1693780D03*
Y1156949D03*
X1697717D03*
X1705591Y1038051D03*
X1701654D03*
Y1156949D03*
X1705591D03*
X1709528Y1038051D03*
Y1156949D03*
X1717402Y1038051D03*
X1713465D03*
Y1156949D03*
X1717402D03*
X1721339Y1038051D03*
Y1156949D03*
G54D68*
X1776750Y1036055D03*
X1811250D03*
X1832750D03*
X1867250D03*
G54D69*
X1794000D03*
X1850000D03*
M02*
